<svg width="1282" height="512" viewBox="0 0 1282 512" version="1.1" xmlns="http://www.w3.org/2000/svg" xmlns:xlink="http://www.w3.org/1999/xlink" xmlns:figma="http://www.figma.com/figma/ns">
<title>brionz logo</title>
<desc>Created using Figma</desc>
<g id="Canvas" transform="translate(188 454)" figma:type="canvas">
<g id="brionz logo" figma:type="vector-operation">
<use xlink:href="#path0_fill" transform="translate(-188 -454)" fill="#121212"/>
</g>
</g>
<defs>
<path id="path0_fill" fill-rule="evenodd" d="M 613.865 256C 613.865 397.385 476.447 512 306.932 512C 137.418 512 0 397.385 0 256C 0 114.615 137.418 0 306.932 0C 476.447 0 613.865 114.615 613.865 256ZM 287.258 287.384C 287.258 301.042 284.463 313.508 278.874 324.782C 273.286 336.055 265.684 345.757 256.066 353.887C 246.449 361.908 235.141 368.141 222.145 372.585C 209.279 377.03 195.437 379.252 180.621 379.252C 165.935 379.252 152.093 376.976 139.098 372.423C 126.231 367.87 114.924 361.529 105.177 353.399C 95.5592 345.269 87.9563 335.622 82.3678 324.457C 76.7794 313.183 73.9851 300.826 73.9851 287.384L 73.9851 132.591L 127.401 132.591L 127.401 213.89C 130.26 210.855 133.704 208.145 137.732 205.76C 141.891 203.375 146.311 201.424 150.989 199.907C 155.798 198.389 160.737 197.251 165.806 196.492C 170.874 195.625 175.812 195.191 180.621 195.191C 195.437 195.191 209.279 197.522 222.145 202.183C 235.141 206.736 246.449 213.131 256.066 221.37C 265.684 229.608 273.286 239.364 278.874 250.637C 284.463 261.802 287.258 274.051 287.258 287.384ZM 233.646 287.384C 233.646 280.664 232.217 274.431 229.358 268.686C 226.629 262.832 222.859 257.792 218.051 253.564C 213.242 249.336 207.589 246.03 201.091 243.646C 194.722 241.261 187.899 240.068 180.621 240.068C 173.344 240.068 166.454 241.423 159.957 244.133C 153.588 246.735 148 250.258 143.191 254.702C 138.382 259.038 134.614 264.079 131.885 269.824C 129.155 275.46 127.791 281.314 127.791 287.384C 127.791 294.105 129.155 300.338 131.885 306.083C 134.614 311.828 138.382 316.814 143.191 321.042C 148 325.27 153.588 328.63 159.957 331.123C 166.454 333.508 173.344 334.7 180.621 334.7C 187.899 334.7 194.722 333.508 201.091 331.123C 207.589 328.63 213.242 325.27 218.051 321.042C 222.859 316.814 226.629 311.828 229.358 306.083C 232.217 300.338 233.646 294.105 233.646 287.384ZM 378.493 189.5L 378.493 282.832L 434.442 282.832C 442.111 282.832 449.324 281.639 456.081 279.254C 462.84 276.761 468.753 273.401 473.822 269.173C 478.89 264.946 482.854 260.014 485.713 254.377C 488.702 248.632 490.197 242.562 490.197 236.166C 490.197 229.771 488.702 223.754 485.713 218.118C 482.854 212.373 478.89 207.386 473.822 203.159C 468.753 198.931 462.84 195.625 456.081 193.24C 449.324 190.747 442.111 189.5 434.442 189.5L 378.493 189.5ZM 378.493 376L 322.543 376L 322.543 142.835L 434.442 142.835C 444.71 142.835 454.587 143.973 464.075 146.25C 473.562 148.417 482.399 151.561 490.587 155.68C 498.905 159.691 506.443 164.569 513.202 170.314C 520.09 175.951 525.938 182.238 530.746 189.175C 535.685 196.113 539.454 203.538 542.053 211.451C 544.782 219.364 546.148 227.603 546.148 236.166C 546.148 244.188 544.913 251.992 542.443 259.58C 540.104 267.168 536.659 274.376 532.111 281.206C 527.692 288.035 522.233 294.322 515.735 300.067C 509.237 305.812 501.959 310.798 493.901 315.026L 524.898 376L 465.439 376L 441.07 329.009L 378.493 329.334L 378.493 376ZM 701.181 167.086C 702.807 163.509 703.62 159.661 703.62 155.542C 703.62 151.531 702.807 147.737 701.181 144.16C 699.664 140.475 697.55 137.331 694.84 134.729C 692.13 132.02 688.932 129.906 685.247 128.388C 681.669 126.762 677.821 125.949 673.702 125.949C 669.583 125.949 665.681 126.762 661.995 128.388C 658.418 129.906 655.274 132.02 652.564 134.729C 649.963 137.331 647.849 140.475 646.223 144.16C 644.706 147.737 643.947 151.531 643.947 155.542C 643.947 159.661 644.706 163.509 646.223 167.086C 647.849 170.664 649.963 173.807 652.564 176.517C 655.274 179.119 658.418 181.232 661.995 182.858C 665.681 184.376 669.583 185.135 673.702 185.135C 677.821 185.135 681.669 184.376 685.247 182.858C 688.932 181.232 692.13 179.119 694.84 176.517C 697.55 173.807 699.664 170.664 701.181 167.086ZM 651.264 377L 695.978 377L 695.978 202.858L 651.264 202.858L 651.264 377ZM 891.258 324.806C 895.919 313.533 898.25 301.392 898.25 288.384C 898.25 274.509 895.919 261.935 891.258 250.662C 886.597 239.28 880.255 229.578 872.234 221.557C 864.212 213.427 854.782 207.194 843.942 202.858C 833.21 198.414 821.666 196.191 809.309 196.191C 797.06 196.191 785.515 198.522 774.675 203.183C 763.944 207.844 754.513 214.294 746.383 222.532C 738.362 230.662 732.021 240.364 727.359 251.637C 722.698 262.911 720.368 275.16 720.368 288.384C 720.368 301.392 722.698 313.533 727.359 324.806C 732.021 335.971 738.362 345.673 746.383 353.911C 754.513 362.041 763.944 368.491 774.675 373.26C 785.515 377.921 797.06 380.252 809.309 380.252C 821.666 380.252 833.21 377.921 843.942 373.26C 854.782 368.491 864.212 362.041 872.234 353.911C 880.255 345.673 886.597 335.971 891.258 324.806ZM 849.958 269.035C 852.343 274.78 853.535 281.23 853.535 288.384C 853.535 295.43 852.343 301.88 849.958 307.733C 847.682 313.587 844.538 318.573 840.527 322.692C 836.517 326.812 831.801 330.009 826.381 332.286C 821.07 334.562 815.379 335.7 809.309 335.7C 803.238 335.7 797.493 334.508 792.073 332.123C 786.762 329.63 782.101 326.27 778.09 322.042C 774.188 317.814 771.098 312.828 768.822 307.083C 766.545 301.338 765.407 295.105 765.407 288.384C 765.407 281.23 766.545 274.78 768.822 269.035C 771.098 263.182 774.188 258.195 778.09 254.076C 782.101 249.849 786.762 246.651 792.073 244.483C 797.493 242.207 803.238 241.068 809.309 241.068C 815.379 241.068 821.07 242.207 826.381 244.483C 831.801 246.651 836.517 249.849 840.527 254.076C 844.538 258.195 847.682 263.182 849.958 269.035ZM 922.802 377L 967.191 377L 967.191 277.49C 967.191 272.938 968.058 268.656 969.792 264.645C 971.527 260.526 973.912 256.949 976.947 253.914C 979.982 250.878 983.559 248.494 987.678 246.759C 991.797 245.025 996.188 244.158 1000.85 244.158C 1005.4 244.158 1009.68 245.025 1013.69 246.759C 1017.7 248.494 1021.23 250.878 1024.26 253.914C 1027.3 256.949 1029.68 260.526 1031.42 264.645C 1033.15 268.656 1034.02 272.938 1034.02 277.49L 1034.02 377L 1078.41 377L 1078.41 277.49C 1078.41 266.759 1076.35 256.678 1072.23 247.247C 1068.22 237.708 1062.69 229.416 1055.64 222.37C 1048.6 215.215 1040.36 209.633 1030.93 205.622C 1021.5 201.503 1011.47 199.443 1000.85 199.443C 990.984 199.443 981.5 201.232 972.394 204.809C 963.397 208.278 955.321 213.264 948.167 219.768L 933.533 202.858L 922.802 202.858L 922.802 377ZM 1100.85 377L 1281.33 377L 1281.33 330.334L 1182.15 330.334L 1281.33 143.835L 1100.85 143.835L 1100.85 190.5L 1200.36 190.5L 1100.85 377Z"/>
</defs>
</svg>
