<svg width="720" height="720" viewBox="0 0 720 720" version="1.1" xmlns="http://www.w3.org/2000/svg" xmlns:xlink="http://www.w3.org/1999/xlink" xmlns:figma="http://www.figma.com/figma/ns">
<title>bRionZ</title>
<desc>Created using Figma</desc>
<g id="Canvas" transform="translate(337 281)" figma:type="canvas">
<mask id="mask0_alpha" mask-type="alpha">
<path d="M -337 -281L 383 -281L 383 439L -337 439L -337 -281Z" fill="#FFFFFF"/>
</mask>
<g id="bRionZ" mask="url(#mask0_alpha)" figma:type="frame">
<g id="Ellipse" figma:type="ellipse">
<use xlink:href="#path0_fill" transform="translate(-337 -281)" fill="#494949"/>
</g>
<g id="bR" figma:type="text">
<use xlink:href="#path1_fill" transform="translate(-337 -281)" fill="#FF0C0C"/>
<use xlink:href="#path2_fill" transform="translate(-337 -281)" fill="#FFFFFF"/>
</g>
</g>
</g>
<defs>
<path id="path0_fill" d="M 720 360C 720 558.823 558.823 720 360 720C 161.177 720 0 558.823 0 360C 0 161.177 161.177 0 360 0C 558.823 0 720 161.177 720 360Z"/>
<path id="path1_fill" d="M 438.914 273.334L 438.914 397.775L 501.135 397.775C 509.662 397.775 517.684 396.186 525.199 393.006C 532.715 389.682 539.291 385.201 544.928 379.564C 550.564 373.928 554.973 367.352 558.152 359.836C 561.477 352.176 563.139 344.082 563.139 335.555C 563.139 327.027 561.477 319.006 558.152 311.49C 554.973 303.83 550.564 297.182 544.928 291.545C 539.291 285.908 532.715 281.5 525.199 278.32C 517.684 274.996 509.662 273.334 501.135 273.334L 438.914 273.334ZM 438.914 522L 376.693 522L 376.693 211.113L 501.135 211.113C 512.553 211.113 523.537 212.631 534.088 215.666C 544.639 218.557 554.467 222.748 563.572 228.24C 572.822 233.588 581.205 240.092 588.721 247.752C 596.381 255.268 602.885 263.65 608.232 272.9C 613.725 282.15 617.916 292.051 620.807 302.602C 623.842 313.152 625.359 324.137 625.359 335.555C 625.359 346.25 623.986 356.656 621.24 366.773C 618.639 376.891 614.809 386.502 609.75 395.607C 604.836 404.713 598.766 413.096 591.539 420.756C 584.312 428.416 576.219 435.064 567.258 440.701L 601.729 522L 535.605 522L 508.506 459.346L 438.914 459.779L 438.914 522Z"/>
<path id="path2_fill" d="M 337.453 403.846C 337.453 422.057 334.346 438.678 328.131 453.709C 321.916 468.74 313.461 481.676 302.766 492.516C 292.07 503.211 279.496 511.521 265.043 517.447C 250.734 523.373 235.342 526.336 218.865 526.336C 202.533 526.336 187.141 523.301 172.688 517.23C 158.379 511.16 145.805 502.705 134.965 491.865C 124.27 481.025 115.814 468.162 109.6 453.275C 103.385 438.244 100.277 421.768 100.277 403.846L 100.277 197.455L 159.68 197.455L 159.68 305.854C 162.859 301.807 166.689 298.193 171.17 295.014C 175.795 291.834 180.709 289.232 185.912 287.209C 191.26 285.186 196.752 283.668 202.389 282.656C 208.025 281.5 213.518 280.922 218.865 280.922C 235.342 280.922 250.734 284.029 265.043 290.244C 279.496 296.314 292.07 304.842 302.766 315.826C 313.461 326.811 321.916 339.818 328.131 354.85C 334.346 369.736 337.453 386.068 337.453 403.846ZM 277.834 403.846C 277.834 394.885 276.244 386.574 273.064 378.914C 270.029 371.109 265.838 364.389 260.49 358.752C 255.143 353.115 248.855 348.707 241.629 345.527C 234.547 342.348 226.959 340.758 218.865 340.758C 210.771 340.758 203.111 342.564 195.885 346.178C 188.803 349.646 182.588 354.344 177.24 360.27C 171.893 366.051 167.701 372.771 164.666 380.432C 161.631 387.947 160.113 395.752 160.113 403.846C 160.113 412.807 161.631 421.117 164.666 428.777C 167.701 436.438 171.893 443.086 177.24 448.723C 182.588 454.359 188.803 458.84 195.885 462.164C 203.111 465.344 210.771 466.934 218.865 466.934C 226.959 466.934 234.547 465.344 241.629 462.164C 248.855 458.84 255.143 454.359 260.49 448.723C 265.838 443.086 270.029 436.438 273.064 428.777C 276.244 421.117 277.834 412.807 277.834 403.846Z"/>
</defs>
</svg>
