<svg width="1238" height="246" viewBox="0 0 1238 246" version="1.1" xmlns="http://www.w3.org/2000/svg" xmlns:xlink="http://www.w3.org/1999/xlink" xmlns:figma="http://www.figma.com/figma/ns">
<title>BRIONZ</title>
<desc>Created using Figma</desc>
<g id="Canvas" transform="translate(485 -42)" figma:type="canvas">
<g id="BRIONZ" figma:type="text">
<use xlink:href="#path0_fill" transform="translate(-558 -212)" fill="#D90000"/>
</g>
</g>
<defs>
<path id="path0_fill" d="M 73.0962 280.997C 73.0962 278.07 73.6382 275.36 74.7222 272.867C 75.8062 270.374 77.2695 268.206 79.1123 266.363C 81.0635 264.412 83.2856 262.895 85.7788 261.811C 88.3804 260.727 91.1445 260.185 94.0713 260.185L 176.183 260.347C 186.373 260.347 195.749 261.811 204.312 264.737C 212.984 267.664 220.41 271.729 226.588 276.932C 232.875 282.027 237.753 288.151 241.222 295.306C 244.691 302.46 246.425 310.319 246.425 318.882C 246.425 325.278 245.287 331.402 243.011 337.256C 240.843 343.001 237.753 348.204 233.743 352.865C 229.732 357.526 224.962 361.537 219.434 364.897C 214.014 368.149 207.998 370.426 201.386 371.727L 201.386 372.377C 209.516 373.569 216.887 375.792 223.499 379.043C 230.111 382.295 235.748 386.415 240.409 391.401C 245.07 396.387 248.647 402.132 251.141 408.636C 253.742 415.14 255.043 422.294 255.043 430.099C 255.043 437.904 253.634 445.654 250.815 453.351C 247.997 460.938 243.444 467.768 237.157 473.838C 230.979 479.8 222.957 484.678 213.093 488.472C 203.337 492.157 191.467 494 177.484 494L 94.0713 494C 91.1445 494 88.3804 493.458 85.7788 492.374C 83.2856 491.29 81.0635 489.827 79.1123 487.984C 77.2695 486.141 75.8062 483.973 74.7222 481.48C 73.6382 478.878 73.0962 476.168 73.0962 473.35L 73.0962 280.997ZM 115.046 465.22L 156.021 465.22C 165.018 465.22 172.931 464.624 179.76 463.432C 186.698 462.131 192.497 459.963 197.158 456.928C 201.928 453.893 205.505 449.828 207.89 444.733C 210.274 439.53 211.467 433.08 211.467 425.384C 211.467 417.254 209.895 410.696 206.751 405.709C 203.608 400.615 199.164 396.658 193.418 393.84C 187.782 391.021 180.953 389.125 172.931 388.149C 165.018 387.065 156.292 386.523 146.753 386.523L 115.046 386.523L 115.046 465.22ZM 115.046 289.127L 115.046 361.483L 155.371 361.483C 161.875 361.483 168.053 360.833 173.907 359.532C 179.76 358.123 184.855 355.955 189.191 353.028C 193.527 349.993 196.941 346.145 199.435 341.483C 202.036 336.822 203.337 331.186 203.337 324.573C 203.337 317.419 201.982 311.565 199.272 307.013C 196.562 302.46 192.931 298.883 188.378 296.281C 183.934 293.571 178.785 291.729 172.931 290.753C 167.078 289.669 160.953 289.127 154.558 289.127L 115.046 289.127ZM 304.96 281.485C 304.96 278.558 305.502 275.794 306.586 273.192C 307.779 270.591 309.351 268.369 311.302 266.526C 313.253 264.575 315.529 263.057 318.131 261.973C 320.841 260.781 323.659 260.185 326.586 260.185L 399.755 260.185C 410.703 260.185 421.218 261.052 431.299 262.786C 441.488 264.521 450.485 267.664 458.29 272.217C 466.095 276.661 472.328 282.731 476.989 290.428C 481.758 298.124 484.143 307.934 484.143 319.858C 484.143 326.362 483.113 332.486 481.054 338.231C 479.103 343.977 476.067 349.125 471.948 353.678C 467.938 358.231 462.789 362.133 456.501 365.385C 450.323 368.637 442.952 371.076 434.388 372.702L 434.388 373.353C 442.518 374.545 449.239 376.442 454.55 379.043C 459.862 381.645 464.144 385.06 467.396 389.287C 470.756 393.406 473.249 398.338 474.875 404.083C 476.501 409.829 477.748 416.333 478.615 423.595C 479.374 430.099 480.024 436.278 480.566 442.131C 481.108 447.876 481.596 452.971 482.029 457.416C 482.463 462.619 482.842 467.388 483.167 471.724L 483.167 473.675C 483.167 476.927 482.517 479.8 481.216 482.293C 480.024 484.786 478.398 486.9 476.338 488.634C 474.387 490.26 472.111 491.507 469.509 492.374C 467.016 493.241 464.415 493.675 461.705 493.675C 459.211 493.675 456.718 493.295 454.225 492.537C 451.84 491.778 449.618 490.64 447.559 489.122C 445.607 487.604 443.927 485.653 442.518 483.269C 441.217 480.884 440.35 478.12 439.917 474.976C 438.724 463.377 437.749 453.242 436.99 444.57C 436.231 435.898 435.31 428.473 434.226 422.294C 433.25 416.007 431.895 410.858 430.161 406.848C 428.426 402.837 425.987 399.693 422.844 397.417C 419.809 395.141 415.852 393.569 410.974 392.702C 406.205 391.726 400.243 391.238 393.088 391.238L 348.049 391.238L 348.049 473.025C 348.049 476.494 347.398 479.529 346.098 482.13C 344.905 484.732 343.279 486.9 341.22 488.634C 339.16 490.26 336.83 491.507 334.228 492.374C 331.735 493.241 329.133 493.675 326.423 493.675C 323.713 493.675 321.058 493.241 318.456 492.374C 315.963 491.507 313.687 490.26 311.627 488.634C 309.676 486.9 308.05 484.732 306.749 482.13C 305.557 479.529 304.96 476.494 304.96 473.025L 304.96 281.485ZM 382.845 361.646C 389.565 361.646 396.34 361.32 403.169 360.67C 409.999 359.911 416.177 358.285 421.706 355.792C 427.234 353.299 431.732 349.667 435.201 344.898C 438.67 340.128 440.404 333.625 440.404 325.386C 440.404 317.256 438.887 310.861 435.852 306.2C 432.816 301.539 428.914 298.016 424.145 295.631C 419.375 293.246 414.063 291.729 408.21 291.078C 402.356 290.428 396.666 290.103 391.137 290.103L 348.049 290.103L 348.049 361.646L 382.845 361.646ZM 537.15 280.834C 537.15 277.366 537.746 274.331 538.938 271.729C 540.239 269.019 541.919 266.797 543.979 265.062C 546.039 263.328 548.369 262.027 550.971 261.16C 553.572 260.293 556.228 259.859 558.938 259.859C 561.648 259.859 564.304 260.293 566.905 261.16C 569.507 262.027 571.837 263.328 573.897 265.062C 575.957 266.797 577.583 269.019 578.775 271.729C 580.076 274.331 580.726 277.366 580.726 280.834L 580.726 472.862C 580.726 476.331 580.076 479.366 578.775 481.968C 577.583 484.569 575.957 486.737 573.897 488.472C 571.837 490.206 569.453 491.507 566.743 492.374C 564.141 493.241 561.485 493.675 558.775 493.675C 556.065 493.675 553.41 493.241 550.808 492.374C 548.207 491.507 545.876 490.206 543.816 488.472C 541.865 486.737 540.239 484.569 538.938 481.968C 537.746 479.366 537.15 476.331 537.15 472.862L 537.15 280.834ZM 674.87 377.255C 674.87 390.263 676.117 402.295 678.61 413.352C 681.211 424.3 685.222 433.785 690.642 441.806C 696.062 449.719 702.945 455.952 711.292 460.505C 719.639 464.949 729.611 467.171 741.21 467.171C 752.809 467.171 762.781 464.949 771.128 460.505C 779.475 455.952 786.358 449.719 791.778 441.806C 797.198 433.785 801.208 424.3 803.81 413.352C 806.412 402.295 807.712 390.263 807.712 377.255C 807.712 364.355 806.412 352.432 803.81 341.483C 801.317 330.427 797.36 320.888 791.94 312.866C 786.521 304.845 779.583 298.558 771.128 294.005C 762.781 289.452 752.809 287.176 741.21 287.176C 729.611 287.176 719.584 289.452 711.129 294.005C 702.783 298.558 695.899 304.845 690.479 312.866C 685.168 320.888 681.211 330.427 678.61 341.483C 676.117 352.432 674.87 364.355 674.87 377.255ZM 628.855 377.255C 628.855 359.044 631.294 342.459 636.172 327.5C 641.05 312.433 648.204 299.533 657.635 288.802C 667.174 278.07 678.935 269.778 692.918 263.924C 706.902 257.962 722.999 254.981 741.21 254.981C 759.529 254.981 775.681 257.962 789.664 263.924C 803.647 269.778 815.354 278.07 824.785 288.802C 834.324 299.533 841.479 312.433 846.248 327.5C 851.126 342.459 853.565 359.044 853.565 377.255C 853.565 395.466 851.126 412.051 846.248 427.01C 841.479 441.969 834.324 454.814 824.785 465.545C 815.354 476.277 803.647 484.624 789.664 490.585C 775.681 496.439 759.529 499.366 741.21 499.366C 722.999 499.366 706.902 496.439 692.918 490.585C 678.935 484.624 667.174 476.277 657.635 465.545C 648.204 454.814 641.05 441.969 636.172 427.01C 631.294 412.051 628.855 395.466 628.855 377.255ZM 898.117 286.2C 898.117 282.081 898.713 278.45 899.905 275.306C 901.206 272.054 902.94 269.344 905.108 267.176C 907.276 264.9 909.715 263.22 912.425 262.136C 915.244 260.943 918.225 260.347 921.368 260.347C 925.487 260.347 929.552 261.377 933.563 263.437C 937.682 265.496 941.422 268.64 944.782 272.867L 1058.44 436.603L 1058.44 278.721C 1058.44 275.686 1058.98 273.03 1060.06 270.753C 1061.15 268.369 1062.56 266.417 1064.29 264.9C 1066.13 263.382 1068.19 262.244 1070.47 261.485C 1072.85 260.618 1075.24 260.185 1077.62 260.185C 1080.01 260.185 1082.34 260.564 1084.62 261.323C 1086.89 262.082 1088.9 263.274 1090.63 264.9C 1092.48 266.417 1093.94 268.369 1095.02 270.753C 1096.11 273.03 1096.65 275.686 1096.65 278.721L 1096.65 468.147C 1096.65 472.266 1096 475.952 1094.7 479.204C 1093.4 482.347 1091.66 485.003 1089.49 487.171C 1087.33 489.339 1084.78 491.019 1081.85 492.211C 1079.03 493.404 1076.05 494 1072.91 494C 1068.9 494 1064.83 493.024 1060.71 491.073C 1056.7 489.014 1052.96 485.816 1049.5 481.48L 936.49 318.557L 936.49 475.626C 936.49 478.662 935.894 481.317 934.701 483.594C 933.617 485.87 932.154 487.821 930.311 489.447C 928.577 490.965 926.517 492.103 924.132 492.862C 921.856 493.621 919.525 494 917.141 494C 914.756 494 912.425 493.621 910.149 492.862C 907.873 492.103 905.813 490.965 903.97 489.447C 902.236 487.93 900.827 486.033 899.743 483.756C 898.659 481.48 898.117 478.77 898.117 475.626L 898.117 286.2ZM 1154.53 494C 1150.96 494 1147.87 493.512 1145.27 492.537C 1142.66 491.561 1140.5 490.26 1138.76 488.634C 1137.03 487.008 1135.73 485.111 1134.86 482.943C 1134.1 480.775 1133.72 478.553 1133.72 476.277C 1133.72 471.833 1135.13 467.605 1137.95 463.594L 1257.62 292.379L 1151.93 292.379C 1149.22 292.379 1146.84 291.945 1144.78 291.078C 1142.83 290.103 1141.15 288.856 1139.74 287.338C 1138.44 285.821 1137.46 284.086 1136.81 282.135C 1136.16 280.184 1135.83 278.233 1135.83 276.282C 1135.83 274.222 1136.16 272.271 1136.81 270.428C 1137.46 268.477 1138.44 266.743 1139.74 265.225C 1141.15 263.708 1142.83 262.515 1144.78 261.648C 1146.84 260.672 1149.22 260.185 1151.93 260.185L 1291.93 260.185C 1297.67 260.185 1302.23 261.865 1305.59 265.225C 1308.95 268.585 1310.63 272.65 1310.63 277.42C 1310.63 279.588 1310.25 281.756 1309.49 283.924C 1308.84 286.092 1307.75 288.26 1306.24 290.428L 1185.91 461.806L 1293.55 461.806C 1296.26 461.806 1298.59 462.293 1300.55 463.269C 1302.61 464.136 1304.29 465.329 1305.59 466.846C 1307 468.364 1308.03 470.098 1308.68 472.049C 1309.33 473.892 1309.65 475.843 1309.65 477.903C 1309.65 479.854 1309.33 481.805 1308.68 483.756C 1308.03 485.708 1307 487.442 1305.59 488.959C 1304.29 490.477 1302.61 491.724 1300.55 492.699C 1298.59 493.566 1296.26 494 1293.55 494L 1154.53 494Z"/>
</defs>
</svg>

                                                                                                    
                                                                                                    
                                                                                                    
                                                                                                    
                                                                                                    
                                                                                                    
                                                                                                    
                                                                                                    
                                                                                                    
                                                                                                    
                                                                                                    
                                                                                                    
                                                                                                    
                                                                                                    
                                                                                                    
                                                                                                    
                                                                                                    
                                                                                                    
                                                                                                    
                                                                                                    
                           
<?xpacket end="w"?></metadata>
<defs>
    <style>
      .cls-1 {
        font-size: 122px;
        fill: #da0202;
        font-family: Montserrat;
      }
    </style>
  </defs>
  <g id="Artboard_1" data-name="Artboard 1">
    <text id="BRIONZ" class="cls-1" transform="translate(-19.068 1295.808) scale(5.774 8.273)">BRIONZ</text>
  </g>
=======
<svg width="1238" height="246" viewBox="0 0 1238 246" version="1.1" xmlns="http://www.w3.org/2000/svg" xmlns:xlink="http://www.w3.org/1999/xlink" xmlns:figma="http://www.figma.com/figma/ns">
<title>BRIONZ</title>
<desc>Created using Figma</desc>
<g id="Canvas" transform="translate(485 -42)" figma:type="canvas">
<g id="BRIONZ" figma:type="text">
<use xlink:href="#path0_fill" transform="translate(-558 -212)" fill="#D90000"/>
</g>
</g>
<defs>
<path id="path0_fill" d="M 73.0962 280.997C 73.0962 278.07 73.6382 275.36 74.7222 272.867C 75.8062 270.374 77.2695 268.206 79.1123 266.363C 81.0635 264.412 83.2856 262.895 85.7788 261.811C 88.3804 260.727 91.1445 260.185 94.0713 260.185L 176.183 260.347C 186.373 260.347 195.749 261.811 204.312 264.737C 212.984 267.664 220.41 271.729 226.588 276.932C 232.875 282.027 237.753 288.151 241.222 295.306C 244.691 302.46 246.425 310.319 246.425 318.882C 246.425 325.278 245.287 331.402 243.011 337.256C 240.843 343.001 237.753 348.204 233.743 352.865C 229.732 357.526 224.962 361.537 219.434 364.897C 214.014 368.149 207.998 370.426 201.386 371.727L 201.386 372.377C 209.516 373.569 216.887 375.792 223.499 379.043C 230.111 382.295 235.748 386.415 240.409 391.401C 245.07 396.387 248.647 402.132 251.141 408.636C 253.742 415.14 255.043 422.294 255.043 430.099C 255.043 437.904 253.634 445.654 250.815 453.351C 247.997 460.938 243.444 467.768 237.157 473.838C 230.979 479.8 222.957 484.678 213.093 488.472C 203.337 492.157 191.467 494 177.484 494L 94.0713 494C 91.1445 494 88.3804 493.458 85.7788 492.374C 83.2856 491.29 81.0635 489.827 79.1123 487.984C 77.2695 486.141 75.8062 483.973 74.7222 481.48C 73.6382 478.878 73.0962 476.168 73.0962 473.35L 73.0962 280.997ZM 115.046 465.22L 156.021 465.22C 165.018 465.22 172.931 464.624 179.76 463.432C 186.698 462.131 192.497 459.963 197.158 456.928C 201.928 453.893 205.505 449.828 207.89 444.733C 210.274 439.53 211.467 433.08 211.467 425.384C 211.467 417.254 209.895 410.696 206.751 405.709C 203.608 400.615 199.164 396.658 193.418 393.84C 187.782 391.021 180.953 389.125 172.931 388.149C 165.018 387.065 156.292 386.523 146.753 386.523L 115.046 386.523L 115.046 465.22ZM 115.046 289.127L 115.046 361.483L 155.371 361.483C 161.875 361.483 168.053 360.833 173.907 359.532C 179.76 358.123 184.855 355.955 189.191 353.028C 193.527 349.993 196.941 346.145 199.435 341.483C 202.036 336.822 203.337 331.186 203.337 324.573C 203.337 317.419 201.982 311.565 199.272 307.013C 196.562 302.46 192.931 298.883 188.378 296.281C 183.934 293.571 178.785 291.729 172.931 290.753C 167.078 289.669 160.953 289.127 154.558 289.127L 115.046 289.127ZM 304.96 281.485C 304.96 278.558 305.502 275.794 306.586 273.192C 307.779 270.591 309.351 268.369 311.302 266.526C 313.253 264.575 315.529 263.057 318.131 261.973C 320.841 260.781 323.659 260.185 326.586 260.185L 399.755 260.185C 410.703 260.185 421.218 261.052 431.299 262.786C 441.488 264.521 450.485 267.664 458.29 272.217C 466.095 276.661 472.328 282.731 476.989 290.428C 481.758 298.124 484.143 307.934 484.143 319.858C 484.143 326.362 483.113 332.486 481.054 338.231C 479.103 343.977 476.067 349.125 471.948 353.678C 467.938 358.231 462.789 362.133 456.501 365.385C 450.323 368.637 442.952 371.076 434.388 372.702L 434.388 373.353C 442.518 374.545 449.239 376.442 454.55 379.043C 459.862 381.645 464.144 385.06 467.396 389.287C 470.756 393.406 473.249 398.338 474.875 404.083C 476.501 409.829 477.748 416.333 478.615 423.595C 479.374 430.099 480.024 436.278 480.566 442.131C 481.108 447.876 481.596 452.971 482.029 457.416C 482.463 462.619 482.842 467.388 483.167 471.724L 483.167 473.675C 483.167 476.927 482.517 479.8 481.216 482.293C 480.024 484.786 478.398 486.9 476.338 488.634C 474.387 490.26 472.111 491.507 469.509 492.374C 467.016 493.241 464.415 493.675 461.705 493.675C 459.211 493.675 456.718 493.295 454.225 492.537C 451.84 491.778 449.618 490.64 447.559 489.122C 445.607 487.604 443.927 485.653 442.518 483.269C 441.217 480.884 440.35 478.12 439.917 474.976C 438.724 463.377 437.749 453.242 436.99 444.57C 436.231 435.898 435.31 428.473 434.226 422.294C 433.25 416.007 431.895 410.858 430.161 406.848C 428.426 402.837 425.987 399.693 422.844 397.417C 419.809 395.141 415.852 393.569 410.974 392.702C 406.205 391.726 400.243 391.238 393.088 391.238L 348.049 391.238L 348.049 473.025C 348.049 476.494 347.398 479.529 346.098 482.13C 344.905 484.732 343.279 486.9 341.22 488.634C 339.16 490.26 336.83 491.507 334.228 492.374C 331.735 493.241 329.133 493.675 326.423 493.675C 323.713 493.675 321.058 493.241 318.456 492.374C 315.963 491.507 313.687 490.26 311.627 488.634C 309.676 486.9 308.05 484.732 306.749 482.13C 305.557 479.529 304.96 476.494 304.96 473.025L 304.96 281.485ZM 382.845 361.646C 389.565 361.646 396.34 361.32 403.169 360.67C 409.999 359.911 416.177 358.285 421.706 355.792C 427.234 353.299 431.732 349.667 435.201 344.898C 438.67 340.128 440.404 333.625 440.404 325.386C 440.404 317.256 438.887 310.861 435.852 306.2C 432.816 301.539 428.914 298.016 424.145 295.631C 419.375 293.246 414.063 291.729 408.21 291.078C 402.356 290.428 396.666 290.103 391.137 290.103L 348.049 290.103L 348.049 361.646L 382.845 361.646ZM 537.15 280.834C 537.15 277.366 537.746 274.331 538.938 271.729C 540.239 269.019 541.919 266.797 543.979 265.062C 546.039 263.328 548.369 262.027 550.971 261.16C 553.572 260.293 556.228 259.859 558.938 259.859C 561.648 259.859 564.304 260.293 566.905 261.16C 569.507 262.027 571.837 263.328 573.897 265.062C 575.957 266.797 577.583 269.019 578.775 271.729C 580.076 274.331 580.726 277.366 580.726 280.834L 580.726 472.862C 580.726 476.331 580.076 479.366 578.775 481.968C 577.583 484.569 575.957 486.737 573.897 488.472C 571.837 490.206 569.453 491.507 566.743 492.374C 564.141 493.241 561.485 493.675 558.775 493.675C 556.065 493.675 553.41 493.241 550.808 492.374C 548.207 491.507 545.876 490.206 543.816 488.472C 541.865 486.737 540.239 484.569 538.938 481.968C 537.746 479.366 537.15 476.331 537.15 472.862L 537.15 280.834ZM 674.87 377.255C 674.87 390.263 676.117 402.295 678.61 413.352C 681.211 424.3 685.222 433.785 690.642 441.806C 696.062 449.719 702.945 455.952 711.292 460.505C 719.639 464.949 729.611 467.171 741.21 467.171C 752.809 467.171 762.781 464.949 771.128 460.505C 779.475 455.952 786.358 449.719 791.778 441.806C 797.198 433.785 801.208 424.3 803.81 413.352C 806.412 402.295 807.712 390.263 807.712 377.255C 807.712 364.355 806.412 352.432 803.81 341.483C 801.317 330.427 797.36 320.888 791.94 312.866C 786.521 304.845 779.583 298.558 771.128 294.005C 762.781 289.452 752.809 287.176 741.21 287.176C 729.611 287.176 719.584 289.452 711.129 294.005C 702.783 298.558 695.899 304.845 690.479 312.866C 685.168 320.888 681.211 330.427 678.61 341.483C 676.117 352.432 674.87 364.355 674.87 377.255ZM 628.855 377.255C 628.855 359.044 631.294 342.459 636.172 327.5C 641.05 312.433 648.204 299.533 657.635 288.802C 667.174 278.07 678.935 269.778 692.918 263.924C 706.902 257.962 722.999 254.981 741.21 254.981C 759.529 254.981 775.681 257.962 789.664 263.924C 803.647 269.778 815.354 278.07 824.785 288.802C 834.324 299.533 841.479 312.433 846.248 327.5C 851.126 342.459 853.565 359.044 853.565 377.255C 853.565 395.466 851.126 412.051 846.248 427.01C 841.479 441.969 834.324 454.814 824.785 465.545C 815.354 476.277 803.647 484.624 789.664 490.585C 775.681 496.439 759.529 499.366 741.21 499.366C 722.999 499.366 706.902 496.439 692.918 490.585C 678.935 484.624 667.174 476.277 657.635 465.545C 648.204 454.814 641.05 441.969 636.172 427.01C 631.294 412.051 628.855 395.466 628.855 377.255ZM 898.117 286.2C 898.117 282.081 898.713 278.45 899.905 275.306C 901.206 272.054 902.94 269.344 905.108 267.176C 907.276 264.9 909.715 263.22 912.425 262.136C 915.244 260.943 918.225 260.347 921.368 260.347C 925.487 260.347 929.552 261.377 933.563 263.437C 937.682 265.496 941.422 268.64 944.782 272.867L 1058.44 436.603L 1058.44 278.721C 1058.44 275.686 1058.98 273.03 1060.06 270.753C 1061.15 268.369 1062.56 266.417 1064.29 264.9C 1066.13 263.382 1068.19 262.244 1070.47 261.485C 1072.85 260.618 1075.24 260.185 1077.62 260.185C 1080.01 260.185 1082.34 260.564 1084.62 261.323C 1086.89 262.082 1088.9 263.274 1090.63 264.9C 1092.48 266.417 1093.94 268.369 1095.02 270.753C 1096.11 273.03 1096.65 275.686 1096.65 278.721L 1096.65 468.147C 1096.65 472.266 1096 475.952 1094.7 479.204C 1093.4 482.347 1091.66 485.003 1089.49 487.171C 1087.33 489.339 1084.78 491.019 1081.85 492.211C 1079.03 493.404 1076.05 494 1072.91 494C 1068.9 494 1064.83 493.024 1060.71 491.073C 1056.7 489.014 1052.96 485.816 1049.5 481.48L 936.49 318.557L 936.49 475.626C 936.49 478.662 935.894 481.317 934.701 483.594C 933.617 485.87 932.154 487.821 930.311 489.447C 928.577 490.965 926.517 492.103 924.132 492.862C 921.856 493.621 919.525 494 917.141 494C 914.756 494 912.425 493.621 910.149 492.862C 907.873 492.103 905.813 490.965 903.97 489.447C 902.236 487.93 900.827 486.033 899.743 483.756C 898.659 481.48 898.117 478.77 898.117 475.626L 898.117 286.2ZM 1154.53 494C 1150.96 494 1147.87 493.512 1145.27 492.537C 1142.66 491.561 1140.5 490.26 1138.76 488.634C 1137.03 487.008 1135.73 485.111 1134.86 482.943C 1134.1 480.775 1133.72 478.553 1133.72 476.277C 1133.72 471.833 1135.13 467.605 1137.95 463.594L 1257.62 292.379L 1151.93 292.379C 1149.22 292.379 1146.84 291.945 1144.78 291.078C 1142.83 290.103 1141.15 288.856 1139.74 287.338C 1138.44 285.821 1137.46 284.086 1136.81 282.135C 1136.16 280.184 1135.83 278.233 1135.83 276.282C 1135.83 274.222 1136.16 272.271 1136.81 270.428C 1137.46 268.477 1138.44 266.743 1139.74 265.225C 1141.15 263.708 1142.83 262.515 1144.78 261.648C 1146.84 260.672 1149.22 260.185 1151.93 260.185L 1291.93 260.185C 1297.67 260.185 1302.23 261.865 1305.59 265.225C 1308.95 268.585 1310.63 272.65 1310.63 277.42C 1310.63 279.588 1310.25 281.756 1309.49 283.924C 1308.84 286.092 1307.75 288.26 1306.24 290.428L 1185.91 461.806L 1293.55 461.806C 1296.26 461.806 1298.59 462.293 1300.55 463.269C 1302.61 464.136 1304.29 465.329 1305.59 466.846C 1307 468.364 1308.03 470.098 1308.68 472.049C 1309.33 473.892 1309.65 475.843 1309.65 477.903C 1309.65 479.854 1309.33 481.805 1308.68 483.756C 1308.03 485.708 1307 487.442 1305.59 488.959C 1304.29 490.477 1302.61 491.724 1300.55 492.699C 1298.59 493.566 1296.26 494 1293.55 494L 1154.53 494Z"/>
</defs>
>>>>>>> c97ec9181a1388629b96415e817fb410f4e2ae5e
</svg>
