<svg width="1122" height="273" viewBox="0 0 1122 273" version="1.1" xmlns="http://www.w3.org/2000/svg" xmlns:xlink="http://www.w3.org/1999/xlink" xmlns:figma="http://www.figma.com/figma/ns">
<title>bRionZ</title>
<desc>Created using Figma</desc>
<g id="Canvas" transform="translate(205 -147)" figma:type="canvas">
<g id="bRionZ" filter="url(#filter0_d)" figma:type="text">
<use xlink:href="#path0_fill" transform="translate(-259 65)" fill="#D90000"/>
</g>
</g>
<defs>
<filter id="filter0_d" filterUnits="userSpaceOnUse" x="-205" y="147" width="1122" height="273" color-interpolation-filters="sRGB">
<feFlood flood-opacity="0" result="BackgroundImageFix"/>
<desc>type="dropShadow" x="0" y="4" size="6" spread="0" color="0.309804,0.309804,0.309804,0.4" blend="normal"</desc>
<feColorMatrix in="SourceAlpha" type="matrix" values="0 0 0 0 0 0 0 0 0 0 0 0 0 0 0 0 0 0 255 0"/>
<feOffset dx="0" dy="4"/>
<feGaussianBlur stdDeviation="3"/>
<feColorMatrix type="matrix" values="0 0 0 0 0.309804 0 0 0 0 0.309804 0 0 0 0 0.309804 0 0 0 0.4 0"/>
<feBlend mode="normal" in2="BackgroundImageFix" result="effect1_dropShadow"/>
<feBlend mode="normal" in="SourceGraphic" in2="effect1_dropShadow" result="shape"/>
</filter>
<path id="path0_fill" d="M 96.0166 84.2661L 95.041 180.199C 101.328 174.128 107.832 169.467 114.553 166.215C 121.382 162.855 127.669 160.416 133.414 158.898C 140.135 157.056 146.693 156.026 153.088 155.809C 160.459 155.809 167.776 156.893 175.039 159.061C 182.302 161.121 189.185 164.102 195.689 168.004C 202.193 171.798 208.155 176.405 213.575 181.825C 219.103 187.245 223.818 193.315 227.721 200.036C 231.731 206.648 234.767 213.802 236.826 221.499C 238.886 229.195 239.807 237.271 239.59 245.726C 239.265 255.048 237.856 263.828 235.363 272.066C 232.87 280.305 229.563 287.893 225.444 294.83C 221.434 301.659 216.718 307.838 211.298 313.366C 205.878 318.895 200.079 323.556 193.9 327.35C 187.83 331.144 181.489 334.016 174.876 335.967C 168.264 338.027 161.76 339.057 155.365 339.057C 148.752 338.84 141.923 337.81 134.877 335.967C 128.807 334.45 122.141 332.011 114.878 328.65C 107.615 325.29 100.461 320.521 93.415 314.342L 93.415 335.642L 63.1719 336.292L 60.4077 85.5669L 96.0166 84.2661ZM 204.632 248.815C 205.174 240.685 204.144 232.88 201.542 225.401C 199.049 217.813 195.31 211.146 190.323 205.401C 185.445 199.656 179.483 195.104 172.438 191.743C 165.5 188.383 157.912 186.757 149.674 186.865C 142.953 186.974 136.612 188.112 130.65 190.28C 124.796 192.448 119.485 195.375 114.715 199.06C 110.054 202.746 105.989 207.027 102.521 211.905C 99.0518 216.783 96.3418 221.986 94.3906 227.515L 94.0654 266.375C 96.0166 273.096 98.7808 279.058 102.358 284.261C 105.935 289.356 110.054 293.692 114.715 297.269C 119.485 300.738 124.58 303.394 130 305.236C 135.528 306.971 141.11 307.892 146.747 308C 154.66 308.217 162.031 306.808 168.86 303.773C 175.798 300.738 181.814 296.564 186.909 291.253C 192.112 285.833 196.231 279.492 199.266 272.229C 202.41 264.966 204.198 257.162 204.632 248.815ZM 476.17 181.825C 475.845 190.171 474.165 197.813 471.129 204.751C 468.094 211.688 464.083 217.976 459.097 223.612C 454.111 229.141 448.312 234.127 441.699 238.571C 435.087 242.907 428.041 246.647 420.562 249.791L 467.877 324.26L 434.22 335.317L 388.692 259.384C 383.489 260.359 378.069 261.172 372.433 261.823C 366.904 262.473 360.78 262.798 354.059 262.798C 348.639 262.798 342.677 262.582 336.173 262.148C 329.778 261.606 323.057 260.685 316.011 259.384L 316.662 328.325L 282.354 329.626L 282.354 99.5503C 291.676 96.7319 300.998 94.6182 310.32 93.209C 319.643 91.7998 328.152 90.7158 335.848 89.957C 344.737 89.1982 353.354 88.7104 361.701 88.4937C 368.747 88.4937 376.552 88.9814 385.115 89.957C 393.679 90.9326 402.242 92.667 410.806 95.1602C 419.478 97.6533 427.824 101.122 435.846 105.566C 443.976 110.011 451.076 115.702 457.146 122.639C 463.325 129.468 468.148 137.761 471.617 147.517C 475.086 157.272 476.604 168.708 476.17 181.825ZM 361.701 121.176C 356.715 121.176 351.566 121.393 346.254 121.826C 341.702 122.151 336.661 122.639 331.133 123.29C 325.604 123.832 320.239 124.699 315.036 125.891L 315.686 229.466C 320.781 230.441 325.875 231.146 330.97 231.58C 336.173 231.905 341.214 232.067 346.092 232.067C 359.1 232.067 371.403 230.604 383.001 227.677C 394.708 224.642 404.952 220.523 413.732 215.32C 422.513 210.117 429.504 203.992 434.708 196.946C 439.911 189.792 442.512 182.096 442.512 173.857C 442.512 165.511 440.507 158.085 436.496 151.582C 432.594 145.078 427.065 139.604 419.911 135.159C 412.757 130.606 404.193 127.138 394.221 124.753C 384.356 122.368 373.517 121.176 361.701 121.176ZM 557.469 111.257C 557.469 114.401 556.818 117.382 555.518 120.2C 554.325 123.019 552.645 125.458 550.477 127.517C 548.417 129.577 545.979 131.203 543.16 132.395C 540.342 133.587 537.307 134.184 534.055 134.184C 530.911 134.184 527.93 133.587 525.112 132.395C 522.402 131.203 519.963 129.577 517.795 127.517C 515.735 125.458 514.109 123.019 512.917 120.2C 511.725 117.382 511.128 114.401 511.128 111.257C 511.128 108.005 511.725 104.97 512.917 102.152C 514.109 99.3335 515.735 96.8945 517.795 94.835C 519.963 92.667 522.402 90.9868 525.112 89.7944C 527.93 88.4937 530.911 87.8433 534.055 87.8433C 537.307 87.8433 540.342 88.4937 543.16 89.7944C 545.979 90.9868 548.417 92.667 550.477 94.835C 552.645 96.8945 554.325 99.3335 555.518 102.152C 556.818 104.97 557.469 108.005 557.469 111.257ZM 549.827 168.492C 549.501 183.993 549.176 198.247 548.851 211.255C 548.634 224.154 548.417 235.916 548.201 246.539C 547.984 257.162 547.767 266.701 547.55 275.156C 547.442 283.502 547.333 290.819 547.225 297.106C 546.9 312.065 546.737 323.827 546.737 332.39L 513.405 332.39C 513.622 320.683 513.893 306.754 514.218 290.603C 514.435 276.728 514.706 259.763 515.031 239.709C 515.464 219.656 515.844 196.35 516.169 169.792L 549.827 168.492ZM 759.903 249.14C 759.903 262.798 757.626 275.427 753.074 287.025C 748.521 298.624 742.288 308.705 734.375 317.269C 726.462 325.832 717.194 332.499 706.571 337.268C 695.948 342.146 684.62 344.585 672.588 344.585C 660.556 344.585 649.282 342.309 638.768 337.756C 628.253 333.203 619.039 326.753 611.126 318.407C 603.321 309.952 597.143 299.871 592.59 288.164C 588.037 276.457 585.761 263.449 585.761 249.14C 585.761 234.723 588.037 221.661 592.59 209.954C 597.143 198.139 603.321 188.058 611.126 179.711C 619.039 171.364 628.253 164.915 638.768 160.362C 649.282 155.809 660.556 153.533 672.588 153.533C 684.62 153.533 695.948 155.972 706.571 160.85C 717.194 165.619 726.462 172.286 734.375 180.849C 742.288 189.304 748.521 199.385 753.074 211.092C 757.626 222.691 759.903 235.374 759.903 249.14ZM 725.595 248.815C 725.595 241.01 724.619 233.151 722.668 225.238C 720.717 217.217 717.627 210.062 713.4 203.775C 709.172 197.38 703.698 192.177 696.978 188.166C 690.257 184.155 682.127 182.15 672.588 182.15C 663.374 182.15 655.461 184.155 648.849 188.166C 642.236 192.177 636.816 197.38 632.589 203.775C 628.361 210.062 625.272 217.217 623.321 225.238C 621.37 233.151 620.394 241.01 620.394 248.815C 620.394 256.62 621.424 264.479 623.483 272.392C 625.651 280.305 628.903 287.459 633.239 293.854C 637.575 300.142 642.995 305.291 649.499 309.301C 656.111 313.312 663.808 315.317 672.588 315.317C 681.802 315.317 689.715 313.312 696.327 309.301C 703.048 305.291 708.576 300.142 712.912 293.854C 717.248 287.459 720.446 280.305 722.505 272.392C 724.565 264.479 725.595 256.62 725.595 248.815ZM 800.715 340.032C 800.064 321.388 799.468 304.532 798.926 289.464C 798.384 274.289 797.896 260.739 797.463 248.815C 797.029 236.891 796.65 226.376 796.325 217.271C 796.108 208.166 795.891 200.307 795.674 193.694C 795.241 178.193 794.916 166.703 794.699 159.224L 831.771 158.573L 832.421 205.401C 835.999 199.223 840.063 193.423 844.616 188.003C 849.169 182.475 854.101 177.597 859.413 173.37C 864.724 169.142 870.361 165.728 876.323 163.126C 882.393 160.524 888.734 159.007 895.347 158.573C 903.585 158.031 910.739 158.736 916.81 160.687C 922.988 162.638 928.246 165.348 932.582 168.817C 936.917 172.286 940.495 176.405 943.313 181.174C 946.131 185.835 948.354 190.713 949.979 195.808C 951.605 200.794 952.744 205.781 953.394 210.767C 954.153 215.753 954.641 220.306 954.857 224.425C 955.508 243.07 955.67 261.823 955.345 280.684C 955.02 299.545 954.641 319.111 954.207 339.382L 920.875 338.244C 921.742 320.792 922.5 303.339 923.151 285.887C 923.91 268.435 923.855 250.82 922.988 233.043C 922.988 231.092 922.826 228.599 922.5 225.563C 922.284 222.42 921.688 219.114 920.712 215.645C 919.845 212.176 918.598 208.762 916.972 205.401C 915.346 201.933 913.232 198.952 910.631 196.458C 908.029 193.857 904.832 191.906 901.038 190.605C 897.352 189.304 893.016 189.033 888.03 189.792C 879.466 191.093 870.74 197.38 861.852 208.653C 853.071 219.818 843.586 236.187 833.397 257.758C 833.831 275.21 834.156 289.139 834.373 299.545C 834.698 309.843 834.969 317.648 835.186 322.959C 835.402 329.247 835.565 333.474 835.673 335.642L 800.715 340.032ZM 1169.49 94.1846L 1168.67 122.151L 1032.25 298.732L 1166.72 297.432L 1165.42 331.74L 991.604 332.39L 990.304 301.659L 1125.42 124.59L 995.995 131.582L 993.881 96.6235L 1169.49 94.1846Z"/>
</defs>
</svg>
